<svg width="45" height="44" viewBox="0 0 45 44" fill="none" xmlns="http://www.w3.org/2000/svg">
<path d="M0.5 22C0.5 9.84974 10.3497 0 22.5 0C34.6503 0 44.5 9.84974 44.5 22C44.5 34.1503 34.6503 44 22.5 44C10.3497 44 0.5 34.1503 0.5 22Z" fill="white"/>
<g clip-path="url(#clip0_10927_14666)">
<path d="M25.834 15.9996C26.0091 15.8245 26.2169 15.6856 26.4457 15.5908C26.6745 15.496 26.9197 15.4473 27.1673 15.4473C27.4149 15.4473 27.6601 15.496 27.8889 15.5908C28.1177 15.6856 28.3256 15.8245 28.5007 15.9996C28.6757 16.1746 28.8146 16.3825 28.9094 16.6113C29.0042 16.8401 29.0529 17.0853 29.0529 17.3329C29.0529 17.5805 29.0042 17.8257 28.9094 18.0545C28.8146 18.2833 28.6757 18.4911 28.5007 18.6662L19.5007 27.6662L15.834 28.6662L16.834 24.9996L25.834 15.9996Z" stroke="#EF4444" stroke-width="2" stroke-linecap="round" stroke-linejoin="round"/>
</g>
<defs>
<clipPath id="clip0_10927_14666">
<rect width="16" height="16" fill="white" transform="translate(14.5 14)"/>
</clipPath>
</defs>
</svg>
