<svg width="18" height="20" viewBox="0 0 18 20" fill="none" xmlns="http://www.w3.org/2000/svg">
<path d="M9.20216 0.833008H8.79882C8.31259 0.833008 7.84628 1.02616 7.50246 1.36998C7.15864 1.7138 6.96549 2.18011 6.96549 2.66634V2.83134C6.96516 3.15284 6.88029 3.4686 6.7194 3.74694C6.55851 4.02529 6.32725 4.25643 6.04882 4.41717L5.65466 4.64634C5.37596 4.80725 5.05981 4.89196 4.73799 4.89196C4.41617 4.89196 4.10003 4.80725 3.82132 4.64634L3.68382 4.57301C3.26313 4.33033 2.76334 4.2645 2.29416 4.38996C1.82498 4.51542 1.42475 4.82192 1.18132 5.24217L0.979657 5.59051C0.736981 6.0112 0.671147 6.51099 0.796606 6.98017C0.922065 7.44935 1.22856 7.84959 1.64882 8.09301L1.78632 8.18467C2.06341 8.34464 2.29381 8.57434 2.45462 8.85094C2.61543 9.12753 2.70106 9.4414 2.70299 9.76134V10.2288C2.70427 10.5519 2.62017 10.8695 2.4592 11.1496C2.29822 11.4297 2.0661 11.6623 1.78632 11.8238L1.64882 11.9063C1.22856 12.1498 0.922065 12.55 0.796606 13.0192C0.671147 13.4884 0.736981 13.9881 0.979657 14.4088L1.18132 14.7572C1.42475 15.1774 1.82498 15.4839 2.29416 15.6094C2.76334 15.7349 3.26313 15.669 3.68382 15.4263L3.82132 15.353C4.10003 15.1921 4.41617 15.1074 4.73799 15.1074C5.05981 15.1074 5.37596 15.1921 5.65466 15.353L6.04882 15.5822C6.32725 15.7429 6.55851 15.9741 6.7194 16.2524C6.88029 16.5308 6.96516 16.8465 6.96549 17.168V17.333C6.96549 17.8192 7.15864 18.2856 7.50246 18.6294C7.84628 18.9732 8.31259 19.1663 8.79882 19.1663H9.20216C9.68839 19.1663 10.1547 18.9732 10.4985 18.6294C10.8423 18.2856 11.0355 17.8192 11.0355 17.333V17.168C11.0358 16.8465 11.1207 16.5308 11.2816 16.2524C11.4425 15.9741 11.6737 15.7429 11.9522 15.5822L12.3463 15.353C12.625 15.1921 12.9412 15.1074 13.263 15.1074C13.5848 15.1074 13.901 15.1921 14.1797 15.353L14.3172 15.4263C14.7378 15.669 15.2376 15.7349 15.7068 15.6094C16.176 15.4839 16.5762 15.1774 16.8197 14.7572L17.0213 14.3997C17.264 13.979 17.3298 13.4792 17.2044 13.01C17.0789 12.5408 16.7724 12.1406 16.3522 11.8972L16.2147 11.8238C15.9349 11.6623 15.7028 11.4297 15.5418 11.1496C15.3808 10.8695 15.2967 10.5519 15.298 10.2288V9.77051C15.2967 9.44746 15.3808 9.1298 15.5418 8.84971C15.7028 8.56962 15.9349 8.33703 16.2147 8.17551L16.3522 8.09301C16.7724 7.84959 17.0789 7.44935 17.2044 6.98017C17.3298 6.51099 17.264 6.0112 17.0213 5.59051L16.8197 5.24217C16.5762 4.82192 16.176 4.51542 15.7068 4.38996C15.2376 4.2645 14.7378 4.33033 14.3172 4.57301L14.1797 4.64634C13.901 4.80725 13.5848 4.89196 13.263 4.89196C12.9412 4.89196 12.625 4.80725 12.3463 4.64634L11.9522 4.41717C11.6737 4.25643 11.4425 4.02529 11.2816 3.74694C11.1207 3.4686 11.0358 3.15284 11.0355 2.83134V2.66634C11.0355 2.18011 10.8423 1.7138 10.4985 1.36998C10.1547 1.02616 9.68839 0.833008 9.20216 0.833008Z" stroke="#09090B" stroke-linecap="round" stroke-linejoin="round"/>
<path d="M9.00049 12.7497C10.5193 12.7497 11.7505 11.5185 11.7505 9.99967C11.7505 8.48089 10.5193 7.24967 9.00049 7.24967C7.48171 7.24967 6.25049 8.48089 6.25049 9.99967C6.25049 11.5185 7.48171 12.7497 9.00049 12.7497Z" stroke="#09090B" stroke-linecap="round" stroke-linejoin="round"/>
</svg>
