<svg width="20" height="15" viewBox="0 0 20 15" fill="none" xmlns="http://www.w3.org/2000/svg">
<path d="M8.16536 11.583H11.832M11.832 11.583V0.583008H0.832031V11.583H3.58203M11.832 11.583H12.7487M17.332 11.583H19.1654V8.52134C19.1657 8.03969 19.0712 7.56267 18.8872 7.11756C18.7032 6.67244 18.4333 6.26795 18.0929 5.92717L16.4154 4.24967H11.832M8.16536 12.0413C8.16536 13.307 7.13935 14.333 5.8737 14.333C4.60805 14.333 3.58203 13.307 3.58203 12.0413C3.58203 10.7757 4.60805 9.74968 5.8737 9.74968C7.13935 9.74968 8.16536 10.7757 8.16536 12.0413ZM17.332 12.0413C17.332 13.307 16.306 14.333 15.0404 14.333C13.7747 14.333 12.7487 13.307 12.7487 12.0413C12.7487 10.7757 13.7747 9.74968 15.0404 9.74968C16.306 9.74968 17.332 10.7757 17.332 12.0413Z" stroke="#09090B" stroke-linecap="round" stroke-linejoin="round"/>
</svg>
